<?xml version="1.0" encoding="UTF-8" standalone="no"?><!DOCTYPE svg PUBLIC "-//W3C//DTD SVG 1.1//EN" "http://www.w3.org/Graphics/SVG/1.1/DTD/svg11.dtd"><svg width="100%" height="100%" viewBox="0 0 21 21" version="1.1" xmlns="http://www.w3.org/2000/svg" xmlns:xlink="http://www.w3.org/1999/xlink" xml:space="preserve" xmlns:serif="http://www.serif.com/" style="fill-rule:evenodd;clip-rule:evenodd;stroke-linejoin:round;stroke-miterlimit:2;"><path id="circle-sync-backup-2-glyph" d="M18.598,3.816c3.413,4.125 3.189,10.247 -0.673,14.109c-3.356,3.355 -8.417,3.965 -12.393,1.829l1.494,-1.494c3.124,1.398 6.92,0.815 9.484,-1.75c3.081,-3.08 3.303,-7.936 0.666,-11.272l-1.019,1.019l-0.354,-3.889l3.889,0.354l-1.094,1.094Zm-16.802,12.56c-2.764,-4.085 -2.338,-9.684 1.279,-13.301c3.096,-3.095 7.643,-3.854 11.45,-2.276l-1.563,1.564c-2.902,-0.876 -6.179,-0.166 -8.472,2.127c-2.833,2.832 -3.248,7.166 -1.247,10.439l0.893,-0.893l0.354,3.889l-3.889,-0.354l1.195,-1.195Z" style="fill:#808080;"/></svg>